<svg width="847" height="481" viewBox="0 0 847 481" fill="none" xmlns="http://www.w3.org/2000/svg">
<path d="M378.871 132.378V132.378C378.871 135.013 377.021 136.973 374.935 136.973H271.433C269.353 136.973 267.502 135.013 267.502 132.384V89.1458C267.502 86.5169 269.352 84.5571 271.433 84.5571H374.94C377.02 84.5571 378.871 86.5169 378.871 89.1458V132.378Z" fill="#ECEBEF" stroke="#DFE0E9" stroke-width="1.5"/>
<path d="M325 132C328.866 132 332 128.866 332 125C332 121.134 328.866 118 325 118C321.134 118 318 121.134 318 125C318 128.866 321.134 132 325 132Z" fill="#A9B4C5"/>
<path d="M297 132C300.866 132 304 128.866 304 125C304 121.134 300.866 118 297 118C293.134 118 290 121.134 290 125C290 128.866 293.134 132 297 132Z" fill="#A9B4C5"/>
<path d="M354 132C357.866 132 361 128.866 361 125C361 121.134 357.866 118 354 118C350.134 118 347 121.134 347 125C347 128.866 350.134 132 354 132Z" fill="#A9B4C5"/>
<path opacity="0.5" d="M234.39 246.426L234.39 263.136L247.519 264.614L234.39 266.829L234.39 268.615L234.39 294.069L247.519 295.547L234.39 297.762V326.507L247.519 327.984L234.39 330.199V337.25" stroke="#B6C2D3" stroke-opacity="0.55" stroke-width="2" stroke-linecap="round" stroke-linejoin="round"/>
<path opacity="0.5" d="M406 254.579L406 271.29L419.13 272.768L406 274.983L406 276.768L406 302.223L419.13 303.701L406 305.916V334.66L419.13 336.138L406 338.353V345.404" stroke="#B6C2D3" stroke-opacity="0.55" stroke-width="2" stroke-linecap="round" stroke-linejoin="round"/>
<path d="M297.269 124.915C297.269 189.594 224.761 124.69 224.761 191.316V397.933" stroke="#9CA0AB" stroke-width="3" stroke-miterlimit="10" stroke-linecap="round"/>
<path d="M325.353 124.915C325.353 189.594 399.446 129.442 399.446 184.489V397.933" stroke="#9CA0AB" stroke-width="3" stroke-miterlimit="10" stroke-linecap="round"/>
<path d="M271.151 105.148L271.152 105.133V105.118V91.6023V91.5872L271.151 91.5721C271.109 90.887 271.341 90.2133 271.794 89.6982C272.244 89.1871 272.877 88.8734 273.556 88.8242H309.936C310.615 88.8734 311.247 89.1871 311.697 89.6982C312.151 90.2133 312.382 90.887 312.341 91.5721L312.34 91.5872V91.6023V105.114V105.129L312.341 105.144C312.382 105.83 312.15 106.505 311.696 107.021C311.246 107.532 310.613 107.847 309.933 107.897H273.556C272.877 107.847 272.245 107.532 271.795 107.021C271.342 106.506 271.11 105.833 271.151 105.148Z" fill="#F1F2F7" stroke="#DFE0E9"/>
<path d="M215.671 355.67C215.778 355.559 215.917 355.5 216.058 355.5H233.942C234.083 355.5 234.222 355.559 234.329 355.67C234.436 355.782 234.5 355.938 234.5 356.105V374.895C234.5 375.062 234.436 375.218 234.329 375.33C234.222 375.442 234.083 375.5 233.942 375.5H216.058C215.917 375.5 215.778 375.442 215.671 375.33C215.564 375.218 215.5 375.062 215.5 374.895V356.105C215.5 355.938 215.564 355.782 215.671 355.67Z" fill="#E0A946" stroke="#CA9535"/>
<path d="M224.497 359H232L228.245 365.5L224.497 372L220.748 365.5L217 359H224.497Z" fill="#3A3A3A"/>
<path d="M407.434 355.5L407.437 355.5C407.573 355.499 407.709 355.527 407.837 355.582C407.965 355.637 408.082 355.718 408.182 355.823C408.282 355.927 408.362 356.052 408.417 356.192C408.472 356.331 408.501 356.481 408.5 356.633V356.636V374.364C408.5 374.364 408.5 374.364 408.5 374.364C408.5 374.672 408.382 374.964 408.18 375.175C407.978 375.386 407.71 375.5 407.434 375.5H390.566C390.29 375.5 390.022 375.386 389.82 375.175C389.618 374.964 389.5 374.672 389.5 374.364C389.5 374.364 389.5 374.364 389.5 374.364V356.636C389.5 356.636 389.5 356.636 389.5 356.636C389.5 356.636 389.5 356.636 389.5 356.636C389.5 356.328 389.618 356.036 389.82 355.825C390.022 355.614 390.29 355.5 390.566 355.5L407.434 355.5Z" fill="#E0A946" stroke="#CA9535"/>
<path d="M398.997 359H406L402.502 365.5L398.997 372L395.499 365.5L392 359H398.997Z" fill="#3A3A3A"/>
<path d="M789.08 271.419H638.927C634.557 271.419 631.015 274.962 631.015 279.332V437.227C631.015 441.597 634.557 445.14 638.927 445.14H789.08C793.45 445.14 796.993 441.597 796.993 437.227V279.332C796.993 274.962 793.45 271.419 789.08 271.419Z" fill="#8CDBFF" fill-opacity="0.3"/>
<path d="M789.833 319.001H638.174C634.22 319.001 631.015 322.206 631.015 326.161V437.98C631.015 441.935 634.22 445.141 638.174 445.141H789.833C793.787 445.141 796.993 441.935 796.993 437.98V326.161C796.993 322.206 793.787 319.001 789.833 319.001Z" fill="#8FD3FF" fill-opacity="0.48"/>
<path d="M789.122 369.977H638.885C634.538 369.977 631.015 373.501 631.015 377.848V437.269C631.015 441.616 634.538 445.14 638.885 445.14H789.122C793.469 445.14 796.993 441.616 796.993 437.269V377.848C796.993 373.501 793.469 369.977 789.122 369.977Z" fill="#77BBFF" fill-opacity="0.68"/>
<path d="M68.432 240.097H25.3936C22.4001 240.097 19.9734 242.524 19.9734 245.518V338.157C19.9734 341.151 22.4001 343.578 25.3936 343.578H68.432C71.4255 343.578 73.8522 341.151 73.8522 338.157V245.518C73.8522 242.524 71.4255 240.097 68.432 240.097Z" fill="#4E4F5D"/>
<path d="M48.2648 253.211V311.682L59.3274 322.745L37.0002 300.416" stroke="#FF4D4D" stroke-width="6" stroke-linecap="round" stroke-linejoin="round"/>
<path d="M63.6367 311.89H33.6741" stroke="#FF4D4D" stroke-width="6" stroke-miterlimit="10" stroke-linecap="round"/>
<path d="M48.2648 311.682V325.991" stroke="#FF4D4D" stroke-width="6" stroke-miterlimit="10" stroke-linecap="round"/>
<path d="M59.7987 299.992L37.0002 322.799" stroke="#FF4D4D" stroke-width="6" stroke-miterlimit="10" stroke-linecap="round"/>
<path d="M231.5 455.922L231.5 455.924C231.503 456.687 231.302 457.359 231.001 457.825C230.697 458.297 230.336 458.5 230.016 458.5H169.988C169.669 458.5 169.308 458.297 169.004 457.825C168.702 457.358 168.5 456.686 168.5 455.922V436.078C168.5 435.314 168.703 434.642 169.004 434.176C169.31 433.703 169.67 433.5 169.988 433.5H230.012C230.331 433.5 230.692 433.703 230.996 434.175C231.297 434.642 231.5 435.314 231.5 436.078L231.5 455.922Z" fill="#ECEBEF" stroke="#DFE0E9"/>
<path d="M408.5 455.922L408.5 455.924C408.503 456.687 408.302 457.359 408.001 457.825C407.697 458.297 407.336 458.5 407.016 458.5H346.988C346.669 458.5 346.308 458.297 346.004 457.825C345.702 457.358 345.5 456.686 345.5 455.922V436.078C345.5 435.314 345.703 434.642 346.004 434.176C346.31 433.703 346.67 433.5 346.988 433.5H407.012C407.331 433.5 407.692 433.703 407.996 434.175C408.297 434.642 408.5 435.314 408.5 436.078L408.5 455.922Z" fill="#ECEBEF" stroke="#DFE0E9"/>
<mask id="path-24-inside-1_5_1113" fill="white">
<path fill-rule="evenodd" clip-rule="evenodd" d="M218.357 397.919V393.078C218.359 392.714 218.504 392.365 218.761 392.108C219.019 391.851 219.367 391.706 219.731 391.704H230.901C231.265 391.706 231.613 391.851 231.871 392.108C232.128 392.365 232.273 392.714 232.275 393.078V397.919H238.766C239.24 397.922 239.694 398.111 240.03 398.446C240.365 398.782 240.554 399.236 240.557 399.711V411.502C240.557 411.976 240.369 412.431 240.035 412.767C239.7 413.102 239.246 413.292 238.772 413.293H163.361C162.886 413.291 162.432 413.101 162.097 412.766C161.761 412.431 161.572 411.976 161.57 411.502V399.711C161.572 399.236 161.761 398.782 162.097 398.446C162.432 398.111 162.886 397.922 163.361 397.919H218.357Z"/>
</mask>
<path fill-rule="evenodd" clip-rule="evenodd" d="M218.357 397.919V393.078C218.359 392.714 218.504 392.365 218.761 392.108C219.019 391.851 219.367 391.706 219.731 391.704H230.901C231.265 391.706 231.613 391.851 231.871 392.108C232.128 392.365 232.273 392.714 232.275 393.078V397.919H238.766C239.24 397.922 239.694 398.111 240.03 398.446C240.365 398.782 240.554 399.236 240.557 399.711V411.502C240.557 411.976 240.369 412.431 240.035 412.767C239.7 413.102 239.246 413.292 238.772 413.293H163.361C162.886 413.291 162.432 413.101 162.097 412.766C161.761 412.431 161.572 411.976 161.57 411.502V399.711C161.572 399.236 161.761 398.782 162.097 398.446C162.432 398.111 162.886 397.922 163.361 397.919H218.357Z" fill="#E0A946"/>
<path d="M218.357 397.919V398.919H219.357V397.919H218.357ZM218.357 393.078L217.357 393.073V393.078H218.357ZM218.761 392.108L219.469 392.815L219.469 392.815L218.761 392.108ZM219.731 391.704L219.731 390.704L219.726 390.704L219.731 391.704ZM230.901 391.704L230.906 390.704H230.901V391.704ZM231.871 392.108L231.164 392.815L231.164 392.815L231.871 392.108ZM232.275 393.078L233.275 393.078L233.275 393.073L232.275 393.078ZM232.275 397.919H231.275V398.919H232.275V397.919ZM238.766 397.919L238.77 396.919H238.766V397.919ZM240.03 398.446L240.737 397.739L240.737 397.739L240.03 398.446ZM240.557 399.711H241.557L241.557 399.706L240.557 399.711ZM240.557 411.502H239.557L239.557 411.503L240.557 411.502ZM238.772 413.293V414.293L238.775 414.293L238.772 413.293ZM163.361 413.293L163.356 414.293H163.361V413.293ZM162.097 412.766L162.804 412.059L162.804 412.059L162.097 412.766ZM161.57 411.502L160.57 411.502L160.57 411.506L161.57 411.502ZM161.57 399.711L160.57 399.706V399.711H161.57ZM162.097 398.446L161.39 397.739L161.39 397.739L162.097 398.446ZM163.361 397.919V396.919L163.356 396.919L163.361 397.919ZM219.357 397.919V393.078H217.357V397.919H219.357ZM219.357 393.082C219.358 392.982 219.398 392.886 219.469 392.815L218.054 391.401C217.611 391.845 217.36 392.446 217.357 393.073L219.357 393.082ZM219.469 392.815C219.539 392.744 219.635 392.705 219.735 392.704L219.726 390.704C219.099 390.707 218.498 390.957 218.054 391.401L219.469 392.815ZM219.731 392.704H230.901V390.704H219.731V392.704ZM230.897 392.704C230.997 392.705 231.093 392.744 231.164 392.815L232.578 391.401C232.134 390.957 231.533 390.707 230.906 390.704L230.897 392.704ZM231.164 392.815C231.234 392.886 231.274 392.982 231.275 393.082L233.275 393.073C233.272 392.446 233.022 391.845 232.578 391.401L231.164 392.815ZM231.275 393.078V397.919H233.275V393.078H231.275ZM232.275 398.919H238.766V396.919H232.275V398.919ZM238.761 398.919C238.972 398.92 239.173 399.004 239.322 399.153L240.737 397.739C240.215 397.217 239.508 396.923 238.77 396.919L238.761 398.919ZM239.322 399.153C239.471 399.303 239.556 399.504 239.557 399.715L241.557 399.706C241.553 398.968 241.259 398.261 240.737 397.739L239.322 399.153ZM239.557 399.711V411.502H241.557V399.711H239.557ZM239.557 411.503C239.557 411.712 239.474 411.913 239.326 412.061L240.743 413.472C241.265 412.949 241.557 412.24 241.557 411.501L239.557 411.503ZM239.326 412.061C239.179 412.209 238.979 412.292 238.77 412.293L238.775 414.293C239.514 414.291 240.222 413.996 240.743 413.472L239.326 412.061ZM238.772 412.293H163.361V414.293H238.772V412.293ZM163.365 412.293C163.155 412.292 162.953 412.208 162.804 412.059L161.39 413.473C161.911 413.995 162.618 414.29 163.356 414.293L163.365 412.293ZM162.804 412.059C162.655 411.91 162.571 411.708 162.57 411.497L160.57 411.506C160.573 412.244 160.868 412.951 161.39 413.473L162.804 412.059ZM162.57 411.502V399.711H160.57V411.502H162.57ZM162.57 399.715C162.571 399.504 162.655 399.303 162.804 399.153L161.39 397.739C160.868 398.261 160.573 398.968 160.57 399.706L162.57 399.715ZM162.804 399.153C162.953 399.004 163.155 398.92 163.365 398.919L163.356 396.919C162.618 396.923 161.911 397.217 161.39 397.739L162.804 399.153ZM163.361 398.919H218.357V396.919H163.361V398.919Z" fill="#CA9535" mask="url(#path-24-inside-1_5_1113)"/>
<path d="M275.104 405.61H285.851C322.442 405.61 321.158 445.905 285.822 445.905H231.5" stroke="#E3B672" stroke-width="4" stroke-miterlimit="10" stroke-linecap="round"/>
<path d="M452.104 405.61H462.851C499.442 405.61 498.158 445.905 462.822 445.905H408.5" stroke="#E3B672" stroke-width="4" stroke-miterlimit="10" stroke-linecap="round"/>
<path d="M161.57 406.189H83.6462C64.4507 406.189 48.1625 392.186 48.1625 370.894V343.292" stroke="#E3B672" stroke-width="4" stroke-miterlimit="10" stroke-linecap="round"/>
<path d="M603.112 405.61H239.527" stroke="#E3B672" stroke-width="4" stroke-miterlimit="10" stroke-linecap="round"/>
<path d="M172.828 405.67C172.828 426.783 181.895 411.5 181.895 433" stroke="#9CA0AB" stroke-width="4" stroke-miterlimit="10" stroke-linecap="round"/>
<mask id="path-31-inside-2_5_1113" fill="white">
<path fill-rule="evenodd" clip-rule="evenodd" d="M392.468 397.919V393.078C392.469 392.714 392.614 392.365 392.872 392.108C393.129 391.851 393.477 391.706 393.841 391.704H405.012C405.375 391.706 405.724 391.851 405.981 392.108C406.238 392.365 406.383 392.714 406.385 393.078V397.919H412.876C413.35 397.922 413.804 398.111 414.14 398.446C414.475 398.782 414.665 399.236 414.667 399.711V411.502C414.667 411.976 414.48 412.431 414.145 412.767C413.811 413.102 413.357 413.292 412.883 413.293H337.471C336.997 413.291 336.542 413.101 336.207 412.766C335.872 412.431 335.682 411.976 335.68 411.502V399.711C335.682 399.236 335.872 398.782 336.207 398.446C336.542 398.111 336.997 397.922 337.471 397.919H392.468Z"/>
</mask>
<path fill-rule="evenodd" clip-rule="evenodd" d="M392.468 397.919V393.078C392.469 392.714 392.614 392.365 392.872 392.108C393.129 391.851 393.477 391.706 393.841 391.704H405.012C405.375 391.706 405.724 391.851 405.981 392.108C406.238 392.365 406.383 392.714 406.385 393.078V397.919H412.876C413.35 397.922 413.804 398.111 414.14 398.446C414.475 398.782 414.665 399.236 414.667 399.711V411.502C414.667 411.976 414.48 412.431 414.145 412.767C413.811 413.102 413.357 413.292 412.883 413.293H337.471C336.997 413.291 336.542 413.101 336.207 412.766C335.872 412.431 335.682 411.976 335.68 411.502V399.711C335.682 399.236 335.872 398.782 336.207 398.446C336.542 398.111 336.997 397.922 337.471 397.919H392.468Z" fill="#E0A946"/>
<path d="M392.468 397.919V398.919H393.468V397.919H392.468ZM392.468 393.078L391.468 393.073V393.078H392.468ZM392.872 392.108L393.579 392.815L393.579 392.815L392.872 392.108ZM393.841 391.704V390.704L393.837 390.704L393.841 391.704ZM405.012 391.704L405.016 390.704H405.012V391.704ZM405.981 392.108L405.274 392.815L405.274 392.815L405.981 392.108ZM406.385 393.078L407.385 393.078L407.385 393.073L406.385 393.078ZM406.385 397.919H405.385V398.919H406.385V397.919ZM412.876 397.919L412.88 396.919H412.876V397.919ZM414.14 398.446L414.847 397.739L414.847 397.739L414.14 398.446ZM414.667 399.711H415.667L415.667 399.706L414.667 399.711ZM414.667 411.502H413.667L413.667 411.503L414.667 411.502ZM412.883 413.293V414.293L412.885 414.293L412.883 413.293ZM337.471 413.293L337.467 414.293H337.471V413.293ZM336.207 412.766L336.914 412.059L336.914 412.059L336.207 412.766ZM335.68 411.502L334.68 411.502L334.68 411.506L335.68 411.502ZM335.68 399.711L334.68 399.706V399.711H335.68ZM336.207 398.446L335.5 397.739L335.5 397.739L336.207 398.446ZM337.471 397.919V396.919L337.467 396.919L337.471 397.919ZM393.468 397.919V393.078H391.468V397.919H393.468ZM393.468 393.082C393.468 392.982 393.508 392.886 393.579 392.815L392.165 391.401C391.721 391.845 391.47 392.446 391.468 393.073L393.468 393.082ZM393.579 392.815C393.65 392.744 393.745 392.705 393.846 392.704L393.837 390.704C393.209 390.707 392.608 390.957 392.165 391.401L393.579 392.815ZM393.841 392.704H405.012V390.704H393.841V392.704ZM405.007 392.704C405.107 392.705 405.203 392.744 405.274 392.815L406.688 391.401C406.244 390.957 405.643 390.707 405.016 390.704L405.007 392.704ZM405.274 392.815C405.345 392.886 405.385 392.982 405.385 393.082L407.385 393.073C407.382 392.446 407.132 391.845 406.688 391.401L405.274 392.815ZM405.385 393.078V397.919H407.385V393.078H405.385ZM406.385 398.919H412.876V396.919H406.385V398.919ZM412.871 398.919C413.082 398.92 413.284 399.004 413.433 399.153L414.847 397.739C414.325 397.217 413.618 396.923 412.88 396.919L412.871 398.919ZM413.433 399.153C413.582 399.303 413.666 399.504 413.667 399.715L415.667 399.706C415.664 398.968 415.369 398.261 414.847 397.739L413.433 399.153ZM413.667 399.711V411.502H415.667V399.711H413.667ZM413.667 411.503C413.667 411.712 413.584 411.913 413.437 412.061L414.854 413.472C415.375 412.949 415.668 412.24 415.667 411.501L413.667 411.503ZM413.437 412.061C413.289 412.209 413.089 412.292 412.88 412.293L412.885 414.293C413.624 414.291 414.332 413.996 414.854 413.472L413.437 412.061ZM412.883 412.293H337.471V414.293H412.883V412.293ZM337.476 412.293C337.265 412.292 337.063 412.208 336.914 412.059L335.5 413.473C336.022 413.995 336.729 414.29 337.467 414.293L337.476 412.293ZM336.914 412.059C336.765 411.91 336.681 411.708 336.68 411.497L334.68 411.506C334.683 412.244 334.978 412.951 335.5 413.473L336.914 412.059ZM336.68 411.502V399.711H334.68V411.502H336.68ZM336.68 399.715C336.681 399.504 336.765 399.303 336.914 399.153L335.5 397.739C334.978 398.261 334.683 398.968 334.68 399.706L336.68 399.715ZM336.914 399.153C337.063 399.004 337.265 398.92 337.476 398.919L337.467 396.919C336.729 396.923 336.022 397.217 335.5 397.739L336.914 399.153ZM337.471 398.919H392.468V396.919H337.471V398.919Z" fill="#CA9535" mask="url(#path-31-inside-2_5_1113)"/>
<path d="M693.921 417.625C703.715 417.625 711.659 412.245 711.659 405.61C711.659 398.975 703.721 393.594 693.921 393.594V417.625Z" fill="#636363" stroke="#444444" stroke-width="3" stroke-linecap="round" stroke-linejoin="round"/>
<path d="M544.75 168.763V61.3239C544.75 58.2455 547.245 55.75 550.323 55.75H593.43C596.507 55.75 599.003 58.2455 599.003 61.3239V168.763C599.003 171.841 596.507 174.337 593.43 174.337H550.323C547.245 174.337 544.75 171.841 544.75 168.763Z" fill="#ECEBEF" stroke="#DFE0E9" stroke-width="1.5"/>
<path d="M101.799 400.546C98.54 400.546 98.9238 381.772 98.4727 381.772C98.0014 381.772 98.3717 400.546 95.0388 400.546" fill="#FFEEEE"/>
<path d="M110.101 400.546C106.842 400.546 107.226 381.772 106.775 381.772C106.303 381.772 106.674 400.546 103.341 400.546" fill="#FFEEEE"/>
<path d="M118.406 400.546C115.147 400.546 115.531 381.772 115.08 381.772C114.609 381.772 114.979 400.546 111.646 400.546" fill="#FFEEEE"/>
<path d="M126.705 400.546C123.446 400.546 123.83 381.772 123.379 381.772C122.907 381.772 123.278 400.546 119.945 400.546" fill="#FFEEEE"/>
<path d="M135.007 400.546C131.748 400.546 132.132 381.772 131.681 381.772C131.209 381.772 131.58 400.546 128.247 400.546" fill="#FFEEEE"/>
<path d="M143.309 400.546C140.05 400.546 140.434 381.772 139.983 381.772C139.511 381.772 139.882 400.546 136.549 400.546" fill="#FFEEEE"/>
<path d="M101.799 400.546C98.54 400.546 98.9238 381.772 98.4727 381.772C98.0014 381.772 98.3717 400.546 95.0388 400.546" stroke="#FFEEEE" stroke-linecap="round" stroke-linejoin="round"/>
<path d="M110.101 400.546C106.842 400.546 107.226 381.772 106.775 381.772C106.303 381.772 106.674 400.546 103.341 400.546" stroke="#FFEEEE" stroke-linecap="round" stroke-linejoin="round"/>
<path d="M118.406 400.546C115.147 400.546 115.531 381.772 115.08 381.772C114.609 381.772 114.979 400.546 111.646 400.546" stroke="#FFEEEE" stroke-linecap="round" stroke-linejoin="round"/>
<path d="M126.705 400.546C123.446 400.546 123.83 381.772 123.379 381.772C122.907 381.772 123.278 400.546 119.945 400.546" stroke="#FFEEEE" stroke-linecap="round" stroke-linejoin="round"/>
<path d="M135.007 400.546C131.748 400.546 132.132 381.772 131.681 381.772C131.209 381.772 131.58 400.546 128.247 400.546" stroke="#FFEEEE" stroke-linecap="round" stroke-linejoin="round"/>
<path d="M143.309 400.546C140.05 400.546 140.434 381.772 139.983 381.772C139.511 381.772 139.882 400.546 136.549 400.546" stroke="#FFEEEE" stroke-linecap="round" stroke-linejoin="round"/>
<path d="M95.0388 400.546C98.3717 400.546 98.0014 381.772 98.4727 381.772C98.9238 381.772 98.54 400.546 101.799 400.546H103.341C106.674 400.546 106.303 381.772 106.775 381.772C107.226 381.772 106.842 400.546 110.101 400.546H111.646C114.979 400.546 114.609 381.772 115.08 381.772C115.531 381.772 115.147 400.546 118.406 400.546H119.945C123.278 400.546 122.907 381.772 123.379 381.772C123.83 381.772 123.446 400.546 126.705 400.546H128.247C131.58 400.546 131.209 381.772 131.681 381.772C132.132 381.772 131.748 400.546 135.007 400.546H136.549C139.882 400.546 139.511 381.772 139.983 381.772C140.434 381.772 140.05 400.546 143.309 400.546" stroke="#FF9595" stroke-linecap="round" stroke-linejoin="round"/>
<path d="M279.117 409.28H251.404C250.984 409.279 250.582 409.112 250.286 408.815C249.989 408.519 249.822 408.117 249.821 407.697V403.522C249.822 403.103 249.989 402.701 250.286 402.404C250.582 402.107 250.984 401.94 251.404 401.94H279.117C279.537 401.94 279.939 402.107 280.235 402.404C280.532 402.701 280.699 403.103 280.7 403.522V407.697C280.7 407.905 280.659 408.111 280.58 408.303C280.5 408.495 280.384 408.67 280.237 408.817C280.09 408.964 279.915 409.08 279.723 409.16C279.531 409.239 279.325 409.28 279.117 409.28Z" fill="#FF4D4D"/>
<path d="M349.828 405.67C349.828 426.783 358.895 411.5 358.895 433" stroke="#9CA0AB" stroke-width="4" stroke-miterlimit="10" stroke-linecap="round"/>
<path d="M453.163 409.28H425.611C425.168 409.279 424.744 409.102 424.431 408.79C424.118 408.477 423.942 408.052 423.941 407.61V403.603C423.942 403.161 424.118 402.736 424.431 402.423C424.744 402.11 425.168 401.934 425.611 401.933H453.163C453.605 401.934 454.03 402.11 454.343 402.423C454.655 402.736 454.832 403.161 454.833 403.603V407.61C454.832 408.052 454.655 408.477 454.343 408.79C454.03 409.102 453.605 409.279 453.163 409.28Z" fill="#FF4D4D"/>
<path d="M119.174 113.688V113.688H119.164H35.7526V113.688L35.7434 113.688C34.8957 113.704 34.0764 113.382 33.465 112.795C32.8549 112.209 32.5016 111.405 32.4821 110.559V81.2235C32.5016 80.3776 32.8549 79.5737 33.465 78.9873C34.0764 78.3998 34.8957 78.0787 35.7434 78.0943L35.7434 78.0944H35.7526L119.168 78.0945L119.178 78.0943C120.025 78.0787 120.845 78.3998 121.456 78.9873C122.066 79.5737 122.42 80.3776 122.439 81.2235V110.556C122.42 111.403 122.067 112.208 121.456 112.795C120.843 113.383 120.023 113.704 119.174 113.688Z" fill="#ECEBEF" stroke="#DFE0E9"/>
<path d="M586.861 166.009C590.42 166.009 593.305 163.124 593.305 159.564C593.305 156.005 590.42 153.12 586.861 153.12C583.303 153.12 580.418 156.005 580.418 159.564C580.418 163.124 583.303 166.009 586.861 166.009Z" fill="#A9B4C5"/>
<path d="M586.867 74.5494C590.426 74.5494 593.311 71.6641 593.311 68.105C593.311 64.5459 590.426 61.6606 586.867 61.6606C583.309 61.6606 580.424 64.5459 580.424 68.105C580.424 71.6641 583.309 74.5494 586.867 74.5494Z" fill="#A9B4C5"/>
<path d="M586.564 137.227C590.123 137.227 593.008 134.341 593.008 130.782C593.008 127.223 590.123 124.338 586.564 124.338C583.006 124.338 580.121 127.223 580.121 130.782C580.121 134.341 583.006 137.227 586.564 137.227Z" fill="#A9B4C5"/>
<path d="M709.717 402.923C723.251 402.923 731.782 397.031 731.782 377.394V305C731.782 286.5 718.5 290 718.5 272C718.5 254 718.5 265 718.5 249.5C718.5 234 731.782 236 731.782 225.5" stroke="#9CA0AB" stroke-width="3" stroke-miterlimit="10" stroke-linecap="round"/>
<path d="M709.092 409.044H713.334C726.867 409.044 738.219 401.704 738.219 382.075L738.219 307C738.219 285.5 752 290.5 752 271.5C752 258 752 261 752 249C752 237 739.5 235.5 739.5 225.5" stroke="#9CA0AB" stroke-width="3" stroke-miterlimit="10" stroke-linecap="round"/>
<path d="M586.861 160.419C528.43 160.419 550.75 125.171 494.95 125.171H354.055" stroke="#9CA0AB" stroke-width="3" stroke-miterlimit="10" stroke-linecap="round"/>
<path opacity="0.5" d="M460.159 118.62V102.91H456.183V118.62H447.958V102.91H443.977V118.62H435.753V102.91H431.776V118.62H423.547V102.91H419.571V118.62H411.346V102.91H407.365V118.62H399.141V102.91H395.164V118.62H389.059" stroke="#B6C2D3" stroke-opacity="0.55" stroke-width="2" stroke-linecap="round" stroke-linejoin="round"/>
<path d="M177.589 124.915H266.752" stroke="#9CA0AB" stroke-width="3" stroke-miterlimit="10" stroke-linecap="round"/>
<path opacity="0.5" d="M18.1494 199.802C18.1494 198.105 33.8282 197.938 33.8282 196.575C33.8282 195.165 18.1494 194.992 18.1494 193.237C18.1494 191.54 33.8282 191.373 33.8282 190.009C33.8282 188.312 17.9871 188.145 17.9871 186.782C17.9871 185.372 33.8282 185.199 33.8282 183.444C33.8282 181.747 17.9871 181.58 17.9871 180.217C17.9871 178.807 33.8282 178.634 33.8282 176.879C33.8282 175.182 17.9871 175.015 17.9871 173.652C17.9871 172.242 33.8282 172.069 33.8282 170.315C33.8282 168.617 17.9871 168.45 17.9871 167.087H18.1494C18.1494 165.389 33.8282 165.222 33.8282 163.859C33.8282 162.449 18.1494 162.276 18.1494 160.521C18.1494 158.824 33.8282 158.657 33.8282 157.294C33.8282 155.884 18.1494 155.711 18.1494 153.957C18.1494 152.259 33.8282 152.092 33.8282 150.729C33.8282 149.319 18.1494 149.146 18.1494 147.392C18.1494 145.694 33.8282 145.527 33.8282 144.164" stroke="#B6C2D3" stroke-opacity="0.55" stroke-width="2" stroke-linecap="round" stroke-linejoin="round"/>
<path d="M103.374 94.712C99.7331 89.8986 96.4514 85.0825 90.6043 85.0825C78.5062 85.0825 77.0276 104.336 61.9729 104.336C54.6916 104.336 50.6928 99.5227 47.0522 94.7066" stroke="#C5C6D1" stroke-width="5" stroke-linecap="round" stroke-linejoin="round"/>
<path d="M39.4585 114.645V240.097" stroke="#9CA0AB" stroke-width="3" stroke-miterlimit="10" stroke-linecap="round"/>
<path d="M746.382 335.862H724.167C721.951 335.862 720.154 337.659 720.154 339.875V351.821C720.154 354.038 721.951 355.835 724.167 355.835H746.382C748.598 355.835 750.394 354.038 750.394 351.821V339.875C750.394 337.659 748.598 335.862 746.382 335.862Z" fill="#E0A946"/>
<path d="M722 222.725C722 224.427 723.89 228 726.219 228H744.729C747.058 228 749.378 224.402 748.948 222.725C748.464 220.849 740.527 209.465 739.661 208.043C738.795 206.62 737.871 206 735.296 206C732.72 206 732.054 206.696 731.342 207.779C730.629 208.862 722 221.519 722 222.725Z" fill="#E89862"/>
<path d="M735.271 351.708H727.407L731.339 344.893L735.271 338.079L739.203 344.893L743.143 351.708H735.271Z" fill="#3A3A3A"/>
<path d="M735.135 206.379V127.562C735.135 111.902 726.413 98.7578 711.658 98.7578H665.88" stroke="#9CA0AB" stroke-width="3" stroke-miterlimit="10" stroke-linecap="round"/>
<path d="M735.23 147V156.492C735.23 156.492 735.063 157.087 733.876 157.156C732.69 157.225 721.135 158.696 711.535 159.498C701.685 159.42 723.527 162.505 726.264 162.719C729.001 162.934 726.448 165.091 724.531 164.934C722.614 164.777 731.323 166.516 729.317 166.516C727.31 166.516 733.884 170.586 731.327 170.508C728.77 170.431 735.247 173.096 734.333 174.727C733.419 176.357 737.343 180.176 736.976 183.505C736.608 186.835 735.23 187.205 735.23 190.241V199" stroke="#FFA3A3" stroke-width="2" stroke-miterlimit="10"/>
<path d="M59.7987 240.097V151.62C59.7987 137.165 70.4553 124.928 85.9624 124.928H143.15" stroke="#9CA0AB" stroke-width="3" stroke-miterlimit="10" stroke-linecap="round"/>
<path d="M175.711 107.426H148.83C145.693 107.426 143.15 109.969 143.15 113.107V136.655C143.15 139.792 145.693 142.336 148.83 142.336H175.711C178.848 142.336 181.391 139.792 181.391 136.655V113.107C181.391 109.969 178.848 107.426 175.711 107.426Z" fill="#D5FAD9" stroke="#BBDFBE" stroke-width="1.5" stroke-miterlimit="10" stroke-linecap="round"/>
<path d="M653.734 96.7566V113.849C653.734 124.488 646.608 130.914 637.171 130.914H586.393" stroke="#9CA0AB" stroke-width="3" stroke-miterlimit="10" stroke-linecap="round"/>
<path d="M653.734 102.393V85.3007C653.734 74.6611 646.608 68.2356 637.171 68.2356H586.393" stroke="#9CA0AB" stroke-width="3" stroke-miterlimit="10" stroke-linecap="round"/>
<path d="M642.09 107.48V91.4166C642.09 89.5104 643.635 87.9651 645.541 87.9651H661.929C663.835 87.9651 665.38 89.5104 665.38 91.4166V107.48C665.38 109.386 663.835 110.931 661.929 110.931H645.541C643.635 110.931 642.09 109.386 642.09 107.48Z" fill="#ECEBEF" stroke="#DFE0E9"/>
<path d="M709.566 267.5L709.563 267.5C709.427 267.501 709.291 267.473 709.163 267.418C709.035 267.363 708.918 267.282 708.818 267.177C708.718 267.073 708.638 266.948 708.583 266.808C708.528 266.669 708.499 266.519 708.5 266.367L708.5 266.364L708.5 248.636C708.5 248.636 708.5 248.636 708.5 248.636C708.5 248.328 708.618 248.036 708.82 247.825C709.022 247.614 709.29 247.5 709.566 247.5L726.434 247.5C726.71 247.5 726.978 247.614 727.18 247.825C727.382 248.036 727.5 248.328 727.5 248.636C727.5 248.636 727.5 248.636 727.5 248.636L727.5 266.364C727.5 266.364 727.5 266.364 727.5 266.364C727.5 266.364 727.5 266.364 727.5 266.364C727.5 266.672 727.382 266.964 727.18 267.175C726.978 267.386 726.71 267.5 726.434 267.5L709.566 267.5Z" fill="#E0A946" stroke="#CA9535"/>
<path d="M718.003 264L711 264L714.498 257.5L718.003 251L721.501 257.5L725 264L718.003 264Z" fill="#3A3A3A"/>
<path d="M743.566 267.5L743.563 267.5C743.427 267.501 743.291 267.473 743.163 267.418C743.035 267.363 742.918 267.282 742.818 267.177C742.718 267.073 742.638 266.948 742.583 266.808C742.528 266.669 742.499 266.519 742.5 266.367L742.5 266.364L742.5 248.636C742.5 248.636 742.5 248.636 742.5 248.636C742.5 248.328 742.618 248.036 742.82 247.825C743.022 247.614 743.29 247.5 743.566 247.5L760.434 247.5C760.71 247.5 760.978 247.614 761.18 247.825C761.382 248.036 761.5 248.328 761.5 248.636C761.5 248.636 761.5 248.636 761.5 248.636L761.5 266.364C761.5 266.364 761.5 266.364 761.5 266.364C761.5 266.364 761.5 266.364 761.5 266.364C761.5 266.672 761.382 266.964 761.18 267.175C760.978 267.386 760.71 267.5 760.434 267.5L743.566 267.5Z" fill="#E0A946" stroke="#CA9535"/>
<path d="M752.003 264L745 264L748.498 257.5L752.003 251L755.501 257.5L759 264L752.003 264Z" fill="#3A3A3A"/>
<path d="M585.289 419.072V419.073C585.293 421.32 583.696 423.036 581.85 423.036H563.94C562.098 423.036 560.5 421.321 560.5 419.072V390.464C560.5 388.216 562.098 386.5 563.94 386.5H581.85C583.692 386.5 585.289 388.216 585.289 390.464V419.072Z" fill="#ECEBEF" stroke="#DFE0E9"/>
<path d="M563.15 405.182H566.869L570.272 390.524L575.061 419.825L578.78 405.174H583.066" stroke="#7A7A7A" stroke-opacity="0.51" stroke-width="3" stroke-linecap="round" stroke-linejoin="round"/>
<path d="M556.289 419.331V419.332C556.293 421.579 554.696 423.295 552.85 423.295H534.94C533.098 423.295 531.5 421.58 531.5 419.331V390.723C531.5 388.475 533.098 386.759 534.94 386.759H552.85C554.692 386.759 556.289 388.475 556.289 390.723V419.331Z" fill="#ECEBEF" stroke="#DFE0E9"/>
<path d="M534.15 405.441H537.869L541.272 390.783L546.061 420.084L549.78 405.433H554.066" stroke="#7A7A7A" stroke-opacity="0.51" stroke-width="3" stroke-linecap="round" stroke-linejoin="round"/>
<path d="M527.289 419.331V419.332C527.293 421.579 525.696 423.295 523.85 423.295H505.94C504.098 423.295 502.5 421.58 502.5 419.331V390.723C502.5 388.475 504.098 386.759 505.94 386.759H523.85C525.692 386.759 527.289 388.475 527.289 390.723V419.331Z" fill="#ECEBEF" stroke="#DFE0E9"/>
<path d="M505.15 405.441H508.869L512.272 390.783L517.061 420.084L520.78 405.433H525.066" stroke="#7A7A7A" stroke-opacity="0.51" stroke-width="3" stroke-linecap="round" stroke-linejoin="round"/>
<path opacity="0.35" d="M673.821 413.058H620.539L603.499 405.68L620.539 398.302H673.821L692.011 405.61L673.821 413.058Z" fill="#FF0000" stroke="#FF0000" stroke-width="5" stroke-linecap="round" stroke-linejoin="round"/>
<path opacity="0.93" d="M618.769 395.026V416.333C618.769 416.333 626.297 413.228 626.297 405.68C626.297 398.131 618.769 395.026 618.769 395.026Z" fill="#ABD6D3" stroke="#C3EFEC" stroke-width="2" stroke-linecap="round" stroke-linejoin="round"/>
<path opacity="0.93" d="M675.687 416.333V395.026C675.687 395.026 668.159 398.132 668.159 405.68C668.159 413.228 675.687 416.333 675.687 416.333Z" fill="#ABD6D3" stroke="#C3EFEC" stroke-width="2" stroke-linecap="round" stroke-linejoin="round"/>
<path d="M646.195 395.263H637.261V416.334H646.195V395.263Z" fill="#D5D5D5" fill-opacity="0.48"/>
<path d="M637.261 394.513C636.847 394.513 636.511 394.849 636.511 395.263V416.334C636.511 416.748 636.847 417.084 637.261 417.084H646.195C646.61 417.084 646.945 416.748 646.945 416.334V395.263C646.945 394.849 646.61 394.513 646.195 394.513H637.261Z" stroke="white" stroke-opacity="0.43" stroke-width="1.5" stroke-linecap="round" stroke-linejoin="round"/>
<path d="M660.122 395.263H651.188V416.334H660.122V395.263Z" fill="#D5D5D5" fill-opacity="0.48"/>
<path d="M651.188 394.513C650.774 394.513 650.438 394.849 650.438 395.263V416.334C650.438 416.748 650.774 417.084 651.188 417.084H660.122C660.536 417.084 660.872 416.748 660.872 416.334V395.263C660.872 394.849 660.536 394.513 660.122 394.513H651.188Z" stroke="white" stroke-opacity="0.43" stroke-width="1.5" stroke-linecap="round" stroke-linejoin="round"/>
<path d="M2.71662 33V8.27273H6.3267V17.4609H6.54403C6.75331 17.0746 7.05516 16.6278 7.44957 16.1207C7.84399 15.6136 8.39134 15.1709 9.09162 14.7926C9.7919 14.4062 10.7176 14.2131 11.8686 14.2131C13.3658 14.2131 14.7019 14.5914 15.8771 15.348C17.0523 16.1046 17.974 17.1953 18.642 18.62C19.3182 20.0447 19.6562 21.7592 19.6562 23.7635C19.6562 25.7678 19.3222 27.4863 18.6541 28.919C17.986 30.3437 17.0684 31.4425 15.9013 32.2152C14.7341 32.9799 13.402 33.3622 11.9048 33.3622C10.7779 33.3622 9.8563 33.1731 9.13992 32.7947C8.43158 32.4164 7.87618 31.9737 7.47372 31.4666C7.07126 30.9595 6.76136 30.5088 6.54403 30.1143H6.24219V33H2.71662ZM6.25426 23.7273C6.25426 25.0312 6.44342 26.1742 6.82173 27.1562C7.20005 28.1383 7.7474 28.907 8.46378 29.4624C9.18016 30.0097 10.0575 30.2834 11.0959 30.2834C12.1745 30.2834 13.076 29.9976 13.8004 29.4261C14.5249 28.8466 15.0722 28.0618 15.4425 27.0717C15.8208 26.0817 16.0099 24.9669 16.0099 23.7273C16.0099 22.5038 15.8248 21.4051 15.4545 20.4311C15.0923 19.4571 14.545 18.6884 13.8125 18.125C13.0881 17.5616 12.1825 17.2798 11.0959 17.2798C10.0495 17.2798 9.16406 17.5495 8.43963 18.0888C7.72325 18.6281 7.17992 19.3807 6.80966 20.3466C6.43939 21.3125 6.25426 22.4394 6.25426 23.7273ZM30.2209 22.7372C30.2209 25.7718 29.8224 28.5608 29.0256 31.1044C28.2287 33.648 27.0656 35.9943 25.5362 38.1435H22.228C22.8236 37.3466 23.379 36.3686 23.8942 35.2095C24.4093 34.0504 24.8601 32.7827 25.2464 31.4062C25.6328 30.0218 25.9347 28.589 26.152 27.108C26.3693 25.6269 26.478 24.17 26.478 22.7372C26.478 20.8295 26.2888 18.8937 25.9105 16.9297C25.5322 14.9657 25.0211 13.1425 24.3771 11.4602C23.7332 9.77793 23.0168 8.40554 22.228 7.34304H25.5362C27.0656 9.49219 28.2287 11.8385 29.0256 14.3821C29.8224 16.9257 30.2209 19.7107 30.2209 22.7372Z" fill="#161616"/>
</svg>
